<svg width="2016" height="1598" viewBox="0 0 2016 1598" fill="none" xmlns="http://www.w3.org/2000/svg">
<g clip-path="url(#clip0_23_849)">
<g filter="url(#filter0_dii_23_849)">
<path d="M1853.62 475.155C1860.66 457.754 1885.64 458.772 1891.24 476.688L1911.24 540.574C1913.65 548.286 1920.47 553.788 1928.52 554.519L1994.07 560.47C2012.14 562.111 2018.86 585.033 2004.54 596.174L1949.75 638.798C1943.68 643.518 1940.85 651.297 1942.48 658.81L1957.29 727.308C1961.2 745.431 1940.49 758.668 1925.69 747.495L1874.35 708.737C1867.69 703.714 1858.62 703.345 1851.58 707.809L1797.26 742.264C1781.6 752.195 1762.03 737.317 1767.41 719.573L1787.74 652.506C1789.97 645.15 1787.79 637.167 1782.12 631.97L1730.98 585.03C1717.61 572.76 1726.18 550.461 1744.32 550.296L1810.14 549.696C1818.22 549.623 1825.46 544.694 1828.49 537.203L1853.62 475.155Z" fill="url(#paint0_radial_23_849)"/>
</g>
<g filter="url(#filter1_dii_23_849)">
<path d="M895.727 578.395C936.852 785.712 1373.09 756.116 1090.73 868.805C923.816 935.419 734.504 854.11 667.89 687.196C601.277 520.283 682.586 330.971 849.499 264.358C1137.77 149.311 830.628 357.508 895.727 578.395Z" fill="url(#paint1_radial_23_849)"/>
</g>
<g filter="url(#filter2_dii_23_849)">
<path d="M191.401 693.878C201.384 677.98 225.793 683.354 228.177 701.975L236.676 768.375C237.702 776.39 243.451 783.001 251.247 785.129L314.745 802.465C332.249 807.244 334.855 830.989 318.804 839.451L257.395 871.824C250.595 875.409 246.451 882.573 246.735 890.254L249.321 960.286C250.005 978.816 227.29 988.22 214.676 974.63L170.914 927.481C165.244 921.372 156.378 919.42 148.666 922.583L89.1501 946.995C71.9949 954.031 55.3292 935.957 63.7317 919.428L95.4891 856.956C98.9723 850.104 98.2204 841.862 93.5548 835.754L51.4187 780.585C40.4049 766.164 52.742 745.709 70.6351 748.723L135.543 759.656C143.511 760.998 151.505 757.413 155.802 750.57L191.401 693.878Z" fill="url(#paint2_radial_23_849)"/>
</g>
<g filter="url(#filter3_dii_23_849)">
<path d="M1219.3 1016.22C1221.86 997.619 1246.32 992.473 1256.15 1008.46L1291.22 1065.48C1295.46 1072.37 1303.42 1076.03 1311.4 1074.76L1376.4 1064.43C1394.32 1061.58 1406.47 1082.15 1395.32 1096.47L1352.67 1151.24C1347.95 1157.31 1347.12 1165.54 1350.54 1172.43L1381.72 1235.19C1389.97 1251.8 1373.13 1269.72 1356.04 1262.52L1296.76 1237.56C1289.08 1234.32 1280.19 1236.19 1274.47 1242.25L1230.27 1288.99C1217.53 1302.46 1194.9 1292.84 1195.76 1274.32L1198.99 1204.32C1199.35 1196.64 1195.27 1189.43 1188.51 1185.79L1127.4 1152.84C1111.43 1144.23 1114.26 1120.51 1131.8 1115.9L1195.46 1099.15C1203.28 1097.1 1209.09 1090.54 1210.19 1082.53L1219.3 1016.22Z" fill="url(#paint3_radial_23_849)"/>
</g>
</g>
<defs>
<filter id="filter0_dii_23_849" x="1684.46" y="460.66" width="329.822" height="330.945" filterUnits="userSpaceOnUse" color-interpolation-filters="sRGB">
<feFlood flood-opacity="0" result="BackgroundImageFix"/>
<feColorMatrix in="SourceAlpha" type="matrix" values="0 0 0 0 0 0 0 0 0 0 0 0 0 0 0 0 0 0 127 0" result="hardAlpha"/>
<feOffset dx="-20" dy="20"/>
<feGaussianBlur stdDeviation="10"/>
<feComposite in2="hardAlpha" operator="out"/>
<feColorMatrix type="matrix" values="0 0 0 0 0 0 0 0 0 0 0 0 0 0 0 0 0 0 0.25 0"/>
<feBlend mode="normal" in2="BackgroundImageFix" result="effect1_dropShadow_23_849"/>
<feBlend mode="normal" in="SourceGraphic" in2="effect1_dropShadow_23_849" result="shape"/>
<feColorMatrix in="SourceAlpha" type="matrix" values="0 0 0 0 0 0 0 0 0 0 0 0 0 0 0 0 0 0 127 0" result="hardAlpha"/>
<feOffset dx="2" dy="-2"/>
<feGaussianBlur stdDeviation="1"/>
<feComposite in2="hardAlpha" operator="arithmetic" k2="-1" k3="1"/>
<feColorMatrix type="matrix" values="0 0 0 0 0 0 0 0 0 0 0 0 0 0 0 0 0 0 0.25 0"/>
<feBlend mode="normal" in2="shape" result="effect2_innerShadow_23_849"/>
<feColorMatrix in="SourceAlpha" type="matrix" values="0 0 0 0 0 0 0 0 0 0 0 0 0 0 0 0 0 0 127 0" result="hardAlpha"/>
<feOffset dx="-2" dy="2"/>
<feGaussianBlur stdDeviation="1"/>
<feComposite in2="hardAlpha" operator="arithmetic" k2="-1" k3="1"/>
<feColorMatrix type="matrix" values="0 0 0 0 1 0 0 0 0 1 0 0 0 0 1 0 0 0 0.25 0"/>
<feBlend mode="normal" in2="effect2_innerShadow_23_849" result="effect3_innerShadow_23_849"/>
</filter>
<filter id="filter1_dii_23_849" x="604.625" y="229.625" width="582.631" height="702.445" filterUnits="userSpaceOnUse" color-interpolation-filters="sRGB">
<feFlood flood-opacity="0" result="BackgroundImageFix"/>
<feColorMatrix in="SourceAlpha" type="matrix" values="0 0 0 0 0 0 0 0 0 0 0 0 0 0 0 0 0 0 127 0" result="hardAlpha"/>
<feOffset dx="-20" dy="20"/>
<feGaussianBlur stdDeviation="10"/>
<feComposite in2="hardAlpha" operator="out"/>
<feColorMatrix type="matrix" values="0 0 0 0 0 0 0 0 0 0 0 0 0 0 0 0 0 0 0.25 0"/>
<feBlend mode="normal" in2="BackgroundImageFix" result="effect1_dropShadow_23_849"/>
<feBlend mode="normal" in="SourceGraphic" in2="effect1_dropShadow_23_849" result="shape"/>
<feColorMatrix in="SourceAlpha" type="matrix" values="0 0 0 0 0 0 0 0 0 0 0 0 0 0 0 0 0 0 127 0" result="hardAlpha"/>
<feOffset dx="2" dy="-2"/>
<feGaussianBlur stdDeviation="1"/>
<feComposite in2="hardAlpha" operator="arithmetic" k2="-1" k3="1"/>
<feColorMatrix type="matrix" values="0 0 0 0 0 0 0 0 0 0 0 0 0 0 0 0 0 0 0.25 0"/>
<feBlend mode="normal" in2="shape" result="effect2_innerShadow_23_849"/>
<feColorMatrix in="SourceAlpha" type="matrix" values="0 0 0 0 0 0 0 0 0 0 0 0 0 0 0 0 0 0 127 0" result="hardAlpha"/>
<feOffset dx="-2" dy="2"/>
<feGaussianBlur stdDeviation="1"/>
<feComposite in2="hardAlpha" operator="arithmetic" k2="-1" k3="1"/>
<feColorMatrix type="matrix" values="0 0 0 0 1 0 0 0 0 1 0 0 0 0 1 0 0 0 0.25 0"/>
<feBlend mode="normal" in2="effect2_innerShadow_23_849" result="effect3_innerShadow_23_849"/>
</filter>
<filter id="filter2_dii_23_849" x="7.25" y="682.496" width="324.23" height="338.574" filterUnits="userSpaceOnUse" color-interpolation-filters="sRGB">
<feFlood flood-opacity="0" result="BackgroundImageFix"/>
<feColorMatrix in="SourceAlpha" type="matrix" values="0 0 0 0 0 0 0 0 0 0 0 0 0 0 0 0 0 0 127 0" result="hardAlpha"/>
<feOffset dx="-20" dy="20"/>
<feGaussianBlur stdDeviation="10"/>
<feComposite in2="hardAlpha" operator="out"/>
<feColorMatrix type="matrix" values="0 0 0 0 0 0 0 0 0 0 0 0 0 0 0 0 0 0 0.25 0"/>
<feBlend mode="normal" in2="BackgroundImageFix" result="effect1_dropShadow_23_849"/>
<feBlend mode="normal" in="SourceGraphic" in2="effect1_dropShadow_23_849" result="shape"/>
<feColorMatrix in="SourceAlpha" type="matrix" values="0 0 0 0 0 0 0 0 0 0 0 0 0 0 0 0 0 0 127 0" result="hardAlpha"/>
<feOffset dx="2" dy="-2"/>
<feGaussianBlur stdDeviation="1"/>
<feComposite in2="hardAlpha" operator="arithmetic" k2="-1" k3="1"/>
<feColorMatrix type="matrix" values="0 0 0 0 0 0 0 0 0 0 0 0 0 0 0 0 0 0 0.25 0"/>
<feBlend mode="normal" in2="shape" result="effect2_innerShadow_23_849"/>
<feColorMatrix in="SourceAlpha" type="matrix" values="0 0 0 0 0 0 0 0 0 0 0 0 0 0 0 0 0 0 127 0" result="hardAlpha"/>
<feOffset dx="-2" dy="2"/>
<feGaussianBlur stdDeviation="1"/>
<feComposite in2="hardAlpha" operator="arithmetic" k2="-1" k3="1"/>
<feColorMatrix type="matrix" values="0 0 0 0 1 0 0 0 0 1 0 0 0 0 1 0 0 0 0.25 0"/>
<feBlend mode="normal" in2="effect2_innerShadow_23_849" result="effect3_innerShadow_23_849"/>
</filter>
<filter id="filter3_dii_23_849" x="1076.89" y="996.926" width="324.717" height="338.367" filterUnits="userSpaceOnUse" color-interpolation-filters="sRGB">
<feFlood flood-opacity="0" result="BackgroundImageFix"/>
<feColorMatrix in="SourceAlpha" type="matrix" values="0 0 0 0 0 0 0 0 0 0 0 0 0 0 0 0 0 0 127 0" result="hardAlpha"/>
<feOffset dx="-20" dy="20"/>
<feGaussianBlur stdDeviation="10"/>
<feComposite in2="hardAlpha" operator="out"/>
<feColorMatrix type="matrix" values="0 0 0 0 0 0 0 0 0 0 0 0 0 0 0 0 0 0 0.25 0"/>
<feBlend mode="normal" in2="BackgroundImageFix" result="effect1_dropShadow_23_849"/>
<feBlend mode="normal" in="SourceGraphic" in2="effect1_dropShadow_23_849" result="shape"/>
<feColorMatrix in="SourceAlpha" type="matrix" values="0 0 0 0 0 0 0 0 0 0 0 0 0 0 0 0 0 0 127 0" result="hardAlpha"/>
<feOffset dx="2" dy="-2"/>
<feGaussianBlur stdDeviation="1"/>
<feComposite in2="hardAlpha" operator="arithmetic" k2="-1" k3="1"/>
<feColorMatrix type="matrix" values="0 0 0 0 0 0 0 0 0 0 0 0 0 0 0 0 0 0 0.25 0"/>
<feBlend mode="normal" in2="shape" result="effect2_innerShadow_23_849"/>
<feColorMatrix in="SourceAlpha" type="matrix" values="0 0 0 0 0 0 0 0 0 0 0 0 0 0 0 0 0 0 127 0" result="hardAlpha"/>
<feOffset dx="-2" dy="2"/>
<feGaussianBlur stdDeviation="1"/>
<feComposite in2="hardAlpha" operator="arithmetic" k2="-1" k3="1"/>
<feColorMatrix type="matrix" values="0 0 0 0 1 0 0 0 0 1 0 0 0 0 1 0 0 0 0.25 0"/>
<feBlend mode="normal" in2="effect2_innerShadow_23_849" result="effect3_innerShadow_23_849"/>
</filter>
<radialGradient id="paint0_radial_23_849" cx="0" cy="0" r="1" gradientUnits="userSpaceOnUse" gradientTransform="translate(1972.51 529.216) rotate(61.7155) scale(124.832 122.889)">
<stop stop-color="white"/>
<stop offset="1" stop-color="#F9E84F"/>
</radialGradient>
<radialGradient id="paint1_radial_23_849" cx="0" cy="0" r="1" gradientUnits="userSpaceOnUse" gradientTransform="translate(941.077 410.778) rotate(44.4939) scale(196.053 162.325)">
<stop stop-color="white"/>
<stop offset="1" stop-color="#F9E84F"/>
</radialGradient>
<radialGradient id="paint2_radial_23_849" cx="0" cy="0" r="1" gradientUnits="userSpaceOnUse" gradientTransform="translate(298.989 767.92) rotate(71.7987) scale(124.832 122.889)">
<stop stop-color="white"/>
<stop offset="1" stop-color="#F9E84F"/>
</radialGradient>
<radialGradient id="paint3_radial_23_849" cx="0" cy="0" r="1" gradientUnits="userSpaceOnUse" gradientTransform="translate(1347.83 1039.43) rotate(47.5) scale(124.832 122.889)">
<stop stop-color="white"/>
<stop offset="1" stop-color="#F9E84F"/>
</radialGradient>
<clipPath id="clip0_23_849">
<rect width="2016" height="1598" fill="white"/>
</clipPath>
</defs>
</svg>
